<svg xmlns="http://www.w3.org/2000/svg" version="1.1" xmlns:xlink="http://www.w3.org/1999/xlink" xmlns:svgjs="http://svgjs.dev/svgjs" width="1000" height="247" viewBox="0 0 1000 247"><g transform="matrix(1,0,0,1,-0.6060603807115967,-0.45377328753279755)"><svg viewBox="0 0 396 98" data-background-color="#ffffff" preserveAspectRatio="xMidYMid meet" height="247" width="1000" xmlns="http://www.w3.org/2000/svg" xmlns:xlink="http://www.w3.org/1999/xlink"><defs></defs><g id="tight-bounds" transform="matrix(1,0,0,1,0.240000089238265,0.1800396039603811)"><svg viewBox="0 0 395.52 97.63992079207921" height="97.63992079207921" width="395.52"><g><svg viewBox="0 0 395.52 97.63992079207921" height="97.63992079207921" width="395.52"><g><svg viewBox="0 0 395.52 97.63992079207921" height="97.63992079207921" width="395.52"><g><svg viewBox="0 0 395.52 97.63992079207921" height="97.63992079207921" width="395.52"><g><svg viewBox="0 0 395.52 97.63992079207921" height="97.63992079207921" width="395.52"><g transform="matrix(1,0,0,1,0,0)"><svg width="395.52" viewBox="1.6800000667572021 -36.040000915527344 147.94000244140625 36.53000259399414" height="97.63992079207921" data-palette-color="#6b7280"><path d="M21.61-9.33L21.61-9.33Q21.61-11.4 20.14-12.51 18.68-13.62 14.87-14.86 11.06-16.09 8.84-17.29L8.84-17.29Q2.78-20.56 2.78-26.1L2.78-26.1Q2.78-28.98 4.41-31.24 6.03-33.5 9.07-34.77 12.11-36.04 15.89-36.04L15.89-36.04Q19.7-36.04 22.68-34.66 25.66-33.28 27.31-30.76 28.96-28.25 28.96-25.05L28.96-25.05 21.63-25.05Q21.63-27.49 20.09-28.85 18.55-30.2 15.77-30.2L15.77-30.2Q13.09-30.2 11.6-29.06 10.11-27.93 10.11-26.07L10.11-26.07Q10.11-24.34 11.85-23.17 13.6-22 16.99-20.97L16.99-20.97Q23.24-19.09 26.1-16.31 28.96-13.53 28.96-9.38L28.96-9.38Q28.96-4.76 25.46-2.14 21.97 0.49 16.06 0.49L16.06 0.49Q11.96 0.49 8.59-1.01 5.22-2.51 3.45-5.13 1.68-7.74 1.68-11.18L1.68-11.18 9.03-11.18Q9.03-5.3 16.06-5.3L16.06-5.3Q18.68-5.3 20.14-6.36 21.61-7.42 21.61-9.33ZM53.46-35.55L60.81-35.55 60.81-12.13Q60.81-6.3 57.16-2.91 53.51 0.49 47.19 0.49L47.19 0.49Q40.96 0.49 37.3-2.81 33.64-6.1 33.57-11.87L33.57-11.87 33.57-35.55 40.89-35.55 40.89-12.08Q40.89-8.59 42.56-6.99 44.24-5.4 47.19-5.4L47.19-5.4Q53.37-5.4 53.46-11.89L53.46-11.89 53.46-35.55ZM80.63 0L66.82 0 66.82-35.55 79.27-35.55Q85.74-35.55 89.08-33.07 92.43-30.59 92.43-25.81L92.43-25.81Q92.43-23.19 91.08-21.2 89.74-19.21 87.35-18.29L87.35-18.29Q90.08-17.6 91.66-15.53 93.23-13.45 93.23-10.45L93.23-10.45Q93.23-5.32 89.96-2.69 86.69-0.05 80.63 0L80.63 0ZM80.85-15.48L74.14-15.48 74.14-5.88 80.41-5.88Q83-5.88 84.46-7.12 85.91-8.35 85.91-10.52L85.91-10.52Q85.91-15.41 80.85-15.48L80.85-15.48ZM74.14-29.61L74.14-20.65 79.56-20.65Q85.1-20.75 85.1-25.07L85.1-25.07Q85.1-27.49 83.7-28.55 82.29-29.61 79.27-29.61L79.27-29.61 74.14-29.61ZM106.05-35.55L106.05-5.88 121.6-5.88 121.6 0 98.72 0 98.72-35.55 106.05-35.55ZM147.18-21.14L147.18-15.41 133.12-15.41 133.12-5.88 149.62-5.88 149.62 0 125.8 0 125.8-35.55 149.57-35.55 149.57-29.61 133.12-29.61 133.12-21.14 147.18-21.14Z" opacity="1" transform="matrix(1,0,0,1,0,0)" fill="#6b7280" class="undefined-text-0" data-fill-palette-color="primary" id="text-0"></path></svg></g></svg></g></svg></g></svg></g></svg></g></svg><rect width="395.52" height="97.63992079207921" fill="none" stroke="none" visibility="hidden"></rect></g></svg></g></svg>