            <svg xmlns="http://www.w3.org/2000/svg" xmlns:xlink="http://www.w3.org/1999/xlink" width="25px" height="25px" viewBox="0 0 25 25" version="1.1">
 <title>ic_office</title> <g id="Page-1" stroke="none" stroke-width="1" fill="none" fill-rule="evenodd"> <g id="cart" transform="translate(-1173.000000, -412.000000)" fill="#65382c" fill-rule="nonzero"> <g id="Group-12" transform="translate(925.000000, 306.000000)"> <g id="Group-35" transform="translate(182.000000, 90.000000)"> <g id="ic_office" transform="translate(66.000000, 16.000000)"> <path d="M20.761302,19.6266746 L20.761302,8.28885594 C20.761302,7.43477893 20.0668723,6.74034917 19.2127953,6.74034917 L15.0340463,6.74034917 L15.0340463,1.54000096 C15.0340463,1.47843296 15.0204441,0.704537533 14.3474915,0.253516144 C13.674539,-0.196789338 12.9536207,0.0852780065 12.8963481,0.108187029 L2.39041336,4.43441283 C1.808381,4.67424166 1.43181393,5.23551272 1.43181393,5.86622676 L1.43181393,19.6266746 L0.715906967,19.6266746 C0.320726321,19.6266746 0,19.9474009 0,20.3425815 C0,20.7377622 0.320726321,21.0584885 0.715906967,21.0584885 L2.1477209,21.0584885 L14.3181393,21.0584885 L20.0453951,21.0584885 L20.761302,21.0584885 C21.1564827,21.0584885 21.477209,20.7377622 21.477209,20.3425815 C21.477209,19.9474009 21.1564827,19.6266746 20.761302,19.6266746 Z M2.86362787,5.86622676 C2.86362787,5.8189769 2.89226415,5.77673839 2.93593447,5.75884072 L13.4418692,1.43333082 C13.4812441,1.41758087 13.5170394,1.42116041 13.5506871,1.44406943 C13.5850506,1.46626255 13.6022324,1.49847836 13.6022324,1.54000096 L13.6022324,7.45625614 L13.6022324,19.6266746 L2.86362787,19.6266746 L2.86362787,5.86622676 Z M15.0340463,19.6266746 L15.0340463,8.1721631 L19.2127953,8.1721631 C19.2772269,8.1721631 19.3294881,8.22442431 19.3294881,8.28885594 L19.3294881,19.6266746 L15.0340463,19.6266746 Z" id="Shape"/> <path d="M10.0226975,16.0471397 L6.4431627,16.0471397 C6.04798205,16.0471397 5.72725573,16.3678661 5.72725573,16.7630467 C5.72725573,17.1582273 6.04798205,17.4789537 6.4431627,17.4789537 L10.0226975,17.4789537 C10.4178782,17.4789537 10.7386045,17.1582273 10.7386045,16.7630467 C10.7386045,16.3678661 10.4178782,16.0471397 10.0226975,16.0471397 Z" id="Path"/> <path d="M10.0226975,13.1835119 L6.4431627,13.1835119 C6.04798205,13.1835119 5.72725573,13.5042382 5.72725573,13.8994188 C5.72725573,14.2945995 6.04798205,14.6153258 6.4431627,14.6153258 L10.0226975,14.6153258 C10.4178782,14.6153258 10.7386045,14.2945995 10.7386045,13.8994188 C10.7386045,13.5042382 10.4178782,13.1835119 10.0226975,13.1835119 Z" id="Path"/> <path d="M10.0226975,10.319884 L6.4431627,10.319884 C6.04798205,10.319884 5.72725573,10.6406103 5.72725573,11.035791 C5.72725573,11.4309716 6.04798205,11.7516979 6.4431627,11.7516979 L10.0226975,11.7516979 C10.4178782,11.7516979 10.7386045,11.4309716 10.7386045,11.035791 C10.7386045,10.6406103 10.4178782,10.319884 10.0226975,10.319884 Z" id="Path"/> <path d="M10.0226975,7.45625614 L6.4431627,7.45625614 C6.04798205,7.45625614 5.72725573,7.77698246 5.72725573,8.1721631 C5.72725573,8.56734375 6.04798205,8.88807007 6.4431627,8.88807007 L10.0226975,8.88807007 C10.4178782,8.88807007 10.7386045,8.56734375 10.7386045,8.1721631 C10.7386045,7.77698246 10.4178782,7.45625614 10.0226975,7.45625614 Z" id="Path"/> </g> </g> </g> </g> </g>
</svg>