            <svg xmlns="http://www.w3.org/2000/svg" xmlns:xlink="http://www.w3.org/1999/xlink" width="27px" height="19px" viewBox="0 0 27 19" version="1.1"> <title>A0EACAC1-D568-4CAD-96BA-3D8D4036483B</title> <g id="Page-1" stroke="none" stroke-width="1" fill="none" fill-rule="evenodd"> <g id="Checkout_Shipping_1" transform="translate(-233.000000, -220.000000)" fill="#FFFFFF" fill-rule="nonzero"> <g id="Group-9" transform="translate(165.000000, 186.000000)"> <g id="Group-15" transform="translate(48.000000, 18.000000)"> <g id="ic_Shipping" transform="translate(20.000000, 16.000000)"> <path d="M20.2300405,11.8172537 C18.3682693,11.8172537 16.8536674,13.3318556 16.8536674,15.1936269 C16.8536674,17.0553981 18.3682693,18.57 20.2300405,18.57 C22.0921257,18.57 23.6064137,17.0553981 23.6064137,15.1936269 C23.6064137,13.3318556 22.0918118,11.8172537 20.2300405,11.8172537 Z M20.2300405,16.8818134 C19.2990241,16.8818134 18.541854,16.1246433 18.541854,15.1936269 C18.541854,14.2626104 19.2990241,13.5054403 20.2300405,13.5054403 C21.1610569,13.5054403 21.9182271,14.2626104 21.9182271,15.1936269 C21.9182271,16.1246956 21.1610569,16.8818134 20.2300405,16.8818134 Z" id="Shape"/> <path d="M8.69414255,11.8172537 C6.83237132,11.8172537 5.3177694,13.3318556 5.3177694,15.1936269 C5.3177694,17.0553981 6.83237132,18.57 8.69414255,18.57 C10.5559138,18.57 12.0705157,17.0553981 12.0705157,15.1936269 C12.0705157,13.3318556 10.5559138,11.8172537 8.69414255,11.8172537 Z M8.69414255,16.8818134 C7.76312614,16.8818134 7.00595597,16.1246433 7.00595597,15.1936269 C7.00595597,14.2626104 7.76312614,13.5054403 8.69414255,13.5054403 C9.62489737,13.5054403 10.3823291,14.2626104 10.3823291,15.1936269 C10.3823291,16.1246956 9.62515895,16.8818134 8.69414255,16.8818134 Z" id="Shape"/> <path d="M22.5037483,2.15301467 C22.3602454,1.86799683 22.0684788,1.68818657 21.7494032,1.68818657 L17.303847,1.68818657 L17.303847,3.37637315 L21.2288585,3.37637315 L23.5273118,7.94795874 L25.036002,7.18937604 L22.5037483,2.15301467 Z" id="Path"/> <rect id="Rectangle" x="11.3108344" y="14.3777058" width="6.38695248" height="1.68818657"/> <path d="M6.16183653,14.3777058 L3.23569529,14.3777058 C2.76945467,14.3777058 2.39162816,14.7555846 2.39162816,15.2217729 C2.39162816,15.6880135 2.76950698,16.06584 3.23569529,16.06584 L6.16188884,16.06584 C6.62812947,16.06584 7.00595597,15.6879612 7.00595597,15.2217729 C7.00595597,14.7555323 6.62807715,14.3777058 6.16183653,14.3777058 Z" id="Path"/> <path d="M26.6085701,9.21745998 L24.948268,7.07909381 C24.7887564,6.87312552 24.5425571,6.75269398 24.2817092,6.75269398 L18.1479664,6.75269398 L18.1479664,0.844067129 C18.1479664,0.377826503 17.7700876,1.48691153e-15 17.3038993,1.48691153e-15 L3.23569529,1.48691153e-15 C2.76945467,1.48691153e-15 2.39162816,0.377878819 2.39162816,0.844067129 C2.39162816,1.31025544 2.76950698,1.68813426 3.23569529,1.68813426 L16.4597799,1.68813426 L16.4597799,7.59676111 C16.4597799,8.06300174 16.8376587,8.44082824 17.303847,8.44082824 L23.8683601,8.44082824 L25.0976303,10.0243304 L25.0976303,14.3776011 L22.7622942,14.3776011 C22.2960536,14.3776011 21.9182271,14.7554799 21.9182271,15.2216683 C21.9182271,15.6879089 22.2961059,16.0657354 22.7622942,16.0657354 L25.9416975,16.0657354 C26.4079381,16.0657354 26.7858169,15.6878566 26.7858169,15.2216683 L26.7858169,9.7351796 C26.7858169,9.54778351 26.7233516,9.36546208 26.6085701,9.21745998 Z" id="Path"/> <path d="M6.10559677,10.1009734 L2.22275196,10.1009734 C1.75651133,10.1009734 1.37868483,10.4788522 1.37868483,10.9450405 C1.37868483,11.4112812 1.75656365,11.7891077 2.22275196,11.7891077 L6.10554446,11.7891077 C6.57178508,11.7891077 6.94961159,11.4112288 6.94961159,10.9450405 C6.94961159,10.4788522 6.57178508,10.1009734 6.10559677,10.1009734 Z" id="Path"/> <path d="M8.04699302,6.78084001 L0.844067129,6.78084001 C0.377878819,6.78084001 0,7.15871883 0,7.62495946 C0,8.09120009 0.377878819,8.46902659 0.844067129,8.46902659 L8.04699302,8.46902659 C8.51323365,8.46902659 8.89106015,8.09114777 8.89106015,7.62495946 C8.89106015,7.15877115 8.51323365,6.78084001 8.04699302,6.78084001 Z" id="Path"/> <path d="M9.42567785,3.46075893 L2.22275196,3.46075893 C1.75651133,3.46075893 1.37868483,3.83863775 1.37868483,4.30482606 C1.37868483,4.77106669 1.75656365,5.14889319 2.22275196,5.14889319 L9.42567785,5.14889319 C9.89191848,5.14889319 10.269745,4.77101437 10.269745,4.30482606 C10.269745,3.83863775 9.89191848,3.46075893 9.42567785,3.46075893 Z" id="Path"/> </g> </g> </g> </g> </g> </svg>
