            <svg xmlns="http://www.w3.org/2000/svg" xmlns:xlink="http://www.w3.org/1999/xlink" width="25px" height="25px" viewBox="0 0 25 25" version="1.1"> <title>DA605190-807A-4C38-87F9-0977B4F0FCD5</title> <g id="Page-1" stroke="none" stroke-width="1" fill="none" fill-rule="evenodd"> <g id="Checkout_Shipping_1" transform="translate(-459.000000, -216.000000)" fill="#888888" fill-rule="nonzero"> <g id="ic_payment" transform="translate(460.000000, 217.000000)"> <path d="M22.4986546,11.8838535 L22.4986546,8.57113409 C22.4986546,7.44782767 21.6273359,6.53428747 20.5264611,6.44570054 L17.4499778,1.07223007 C17.1648783,0.575259385 16.7045107,0.220057922 16.1536464,0.0725636903 C15.6053936,-0.073926154 15.0320809,0.00300989035 14.5413804,0.288607334 L3.99500888,6.42842508 L2.14274097,6.42842508 C0.961011817,6.42842508 0,7.38937234 0,8.57113409 L0,21.4272877 C0,22.6089992 0.960961597,23.5699967 2.14274097,23.5699967 L20.3559137,23.5699967 C21.5376428,23.5699967 22.4986546,22.6090495 22.4986546,21.4272877 L22.4986546,18.1145683 C23.1208314,17.8926992 23.57,17.3036764 23.57,16.6062301 L23.57,13.3921917 C23.57,12.6947454 23.1208314,12.1057226 22.4986546,11.8838535 Z M19.2815551,6.42842508 L14.6125422,6.42842508 L18.1143395,4.38972034 L19.2815551,6.42842508 Z M17.5820567,3.46000951 L12.4832603,6.42842508 L10.3683412,6.42842508 L17.0532391,2.53642545 L17.5820567,3.46000951 Z M15.080694,1.21450149 C15.3229055,1.07273227 15.6058958,1.03506775 15.8763813,1.10728318 C16.1499804,1.18050299 16.37808,1.35732532 16.5198514,1.60475606 L16.5209562,1.60671462 L8.23915968,6.42842508 L6.12434109,6.42842508 L15.080694,1.21450149 Z M21.427259,21.4272877 C21.427259,22.0178673 20.946502,22.4986171 20.3559137,22.4986171 L2.14274097,22.4986171 C1.5521526,22.4986171 1.07139559,22.0178673 1.07139559,21.4272877 L1.07139559,8.57113409 C1.07139559,7.98055453 1.5521526,7.49980469 2.14274097,7.49980469 L20.3559137,7.49980469 C20.946502,7.49980469 21.427259,7.98055453 21.427259,8.57113409 L21.427259,11.7851725 L18.2131727,11.7851725 C16.4408049,11.7851725 14.9990863,13.2268696 14.9990863,14.9992109 C14.9990863,16.7715522 16.4408049,18.2132493 18.2131727,18.2132493 L21.427259,18.2132493 L21.427259,21.4272877 Z M22.4986546,16.6062301 C22.4986546,16.901771 22.2585523,17.1419199 21.9629568,17.1419199 L18.2131727,17.1419199 C17.0314435,17.1419199 16.0704317,16.1809727 16.0704317,14.9992109 C16.0704317,13.8174994 17.0313933,12.8565019 18.2131727,12.8565019 L21.9629568,12.8565019 C22.2585021,12.8565019 22.4986546,13.0966006 22.4986546,13.3921917 L22.4986546,16.6062301 L22.4986546,16.6062301 Z" id="Shape" stroke="#888888" stroke-width="0.5"/> <path d="M18.561375,14.142 C18.0741313,14.142 17.6775,14.5386313 17.6775,15.025875 C17.6775,15.5131187 18.0741313,15.90975 18.561375,15.90975 C19.0486187,15.90975 19.44525,15.5131187 19.44525,15.025875 C19.4452914,14.5386313 19.0486601,14.142 18.561375,14.142 Z" id="Path"/> </g> </g> </g> </svg>
