            <svg xmlns="http://www.w3.org/2000/svg" xmlns:xlink="http://www.w3.org/1999/xlink" width="20px" height="24px" viewBox="0 0 20 24" version="1.1"> <title>0BFC31CE-D56A-46CE-9BC0-5CCE01026044</title> <g id="Page-1" stroke="none" stroke-width="1" fill="none" fill-rule="evenodd"> <g id="Checkout_Shipping_1" transform="translate(-697.000000, -217.000000)" fill="#888888" fill-rule="nonzero"> <g id="ic_eview" transform="translate(697.000000, 217.000000)"> <path d="M19.7797534,6.06882829 C19.7676532,5.43247205 19.7561031,4.83131615 19.7561031,4.24974045 C19.7561031,3.79411598 19.3868295,3.42473235 18.931095,3.42473235 C15.4028104,3.42473235 12.7164741,2.4107424 10.4772921,0.233601044 C10.1569689,-0.0779220127 9.64722394,-0.0778120116 9.3270108,0.233601044 C7.08804884,2.4107424 4.40215248,3.42473235 0.87408787,3.42473235 C0.4184634,3.42473235 0.0490797758,3.79411598 0.0490797758,4.24974045 C0.0490797758,4.83142615 0.0376396636,5.43280205 0.0254295438,6.0692683 C-0.0876515657,11.9912864 -0.242533085,20.101776 9.63193379,23.5244596 C9.71949465,23.5548199 9.81079555,23.57 9.90209644,23.57 C9.99339734,23.57 10.0848082,23.5548199 10.1722591,23.5244596 C20.047496,20.101666 19.8928345,11.9909564 19.7797534,6.06882829 Z M9.90220645,21.8694933 C1.43355336,18.7930931 1.56159462,12.053877 1.67522573,6.10072861 C1.6820458,5.7434451 1.68864586,5.3971617 1.69326591,5.05769837 C4.99769833,4.91821701 7.64014425,3.91687718 9.90220645,1.94631785 C12.1644886,3.91687718 14.8073746,4.91832701 18.112027,5.05769837 C18.116647,5.3970517 18.1232471,5.7431151 18.1300672,6.1001786 C18.2435883,12.053547 18.3715195,18.7929831 9.90220645,21.8694933 Z" id="Shape"/> <path d="M12.7432043,8.91906626 L8.76127525,12.9007753 L7.06208858,11.2015887 C6.73989542,10.8795055 6.21750029,10.8795055 5.89541713,11.2015887 C5.57322397,11.5238918 5.57322397,12.0461769 5.89541713,12.3683701 L8.17793953,14.6508925 C8.33898111,14.8119341 8.55018318,14.8924549 8.76127525,14.8924549 C8.97236732,14.8924549 9.1835694,14.8119341 9.34461098,14.6508925 L13.9097658,10.0858477 C14.2320689,9.76365454 14.2320689,9.24125942 13.9098758,8.91917626 C13.5877926,8.5969831 13.0653975,8.5968731 12.7432043,8.91906626 Z" id="Path"/> </g> </g> </g> </svg>
